<svg width="116" height="100" viewBox="0 0 116 100" fill="none" xmlns="http://www.w3.org/2000/svg">
<mask id="path-1-inside-1" fill="white">
<path fill-rule="evenodd" clip-rule="evenodd" d="M87.1645 57.9295C87.3483 54.3525 87.2123 51.0574 86.9527 47.7656C86.8291 46.1961 86.6168 44.6323 86.4882 43.0632C86.4483 42.5779 86.2794 42.4824 85.8041 42.5628C82.4773 43.1252 79.3756 42.3958 76.3527 41.0827C74.9552 40.4753 73.4765 40.0416 72.0471 39.4999C70.9098 39.07 69.9542 38.4058 69.1484 37.4967C66.4161 34.4116 63.14 32.0612 59.1994 30.5181C55.6121 29.1128 52.8478 26.8319 51.8065 23.0538C50.6622 18.9044 52.6798 13.3436 56.2524 10.7717C57.7621 9.68519 59.4447 9.15067 61.3382 9.49787C61.8066 9.58396 61.9642 9.44016 62.1598 9.06505C65.3403 2.97296 72.1841 -0.649937 79.2958 0.0969691C83.421 0.53026 87.463 1.45455 91.4691 2.47676C93.9162 3.10068 96.0106 4.34852 97.5617 6.33002C97.737 6.55471 98.002 6.78318 97.8237 7.10152C97.6494 7.41372 97.3253 7.3579 97.0189 7.32716C93.268 6.94448 90.1392 8.3049 87.3566 10.5664C85.977 11.6875 84.6795 12.9022 83.2994 14.0219C81.0301 15.8634 78.5032 17.0705 75.4123 16.7441C73.4209 16.5341 71.7442 15.6046 70.0901 14.6146C69.8498 14.4708 69.6104 14.1326 69.3158 14.3029C69.039 14.4623 69.1927 14.8331 69.1922 15.107C69.1907 18.7133 70.1842 22.1589 71.0497 25.6247C71.425 27.128 71.4275 27.1034 72.915 26.4866C73.6243 26.1928 73.8814 25.7993 73.8701 25.0292C73.843 23.1049 74.3213 21.2767 75.3454 19.5955C76.3788 17.9002 77.9171 17.0157 79.9455 16.9494C80.8469 16.9196 81.7611 16.9173 82.6531 17.0251C85.5066 17.3699 87.864 16.4608 89.7944 14.485C90.847 13.4079 91.8055 12.2466 92.8315 11.1445C94.3541 9.50922 96.0928 8.18191 98.4138 7.7647C98.8695 7.68287 99.3482 7.64408 99.8088 7.68003C100.836 7.7595 101.385 8.36308 101.337 9.34272C101.318 9.72114 101.253 10.1237 101.093 10.4647C98.3301 16.3132 93.9191 20.2956 87.2237 21.6362C85.9361 21.894 84.617 21.7771 83.3181 21.6541C80.8666 21.4233 78.8421 22.148 77.257 23.9814C76.7654 24.55 76.297 25.1673 75.6966 25.611C74.8907 26.207 74.873 26.8678 75.2449 27.6332C76.3428 29.8938 76.6167 32.2683 76.6871 34.7494C76.7575 37.2247 77.7294 39.3543 80.4691 40.3419C83.4934 41.4323 86.3114 41.3788 88.8245 39.2455C91.0568 37.35 92.2552 34.8373 92.6409 32.0919C93.5492 25.6223 96.6642 20.1078 100.323 14.7929C101.231 13.4736 102.239 12.2296 103.537 11.2381C104.864 10.224 106.336 9.59105 108.086 9.88433C110.147 10.2306 110.985 11.4912 110.452 13.449C110.028 15.0081 109.152 16.3307 108.019 17.4981C107.517 18.0152 107.009 18.5402 106.43 18.9707C103.712 20.9947 102.225 23.6125 101.925 26.9236C101.545 31.1302 99.4733 34.484 95.9722 37.0066C93.4103 38.8524 90.9854 40.9171 87.9172 42.007C87.2414 42.2473 87.4606 42.7056 87.5103 43.1162C88.0659 47.6885 88.3787 52.2745 88.226 56.8784C88.0379 62.5642 87.2458 68.1435 84.8441 73.4173C83.7969 75.7152 82.428 77.8296 80.9601 79.9351C81.27 79.726 81.5813 79.5198 81.8881 79.3074C85.8863 76.5425 90.1209 74.272 95.0521 73.4234C99.4586 72.6647 103.642 73.3127 107.633 75.2062C110.786 76.7024 113.486 78.7832 116 81.2316C112.045 83.2609 108.494 85.7812 104.577 87.73C99.593 90.2096 94.7215 90.2049 89.855 87.4774C88.528 86.7339 87.1621 86.048 85.7824 85.398C82.9723 84.0755 80.1651 84.1904 77.3777 85.5073C75.4079 86.4382 73.6997 87.7263 72.0294 89.0687C67.3776 92.807 62.3736 95.9758 56.5706 97.8414C50.1771 99.8967 43.8835 99.7903 37.7136 97.0269C27.8829 92.623 19.3122 86.6099 12.7029 78.3003C7.69942 72.01 4.82134 64.6928 2.69148 57.1093C0.800012 50.3738 -0.278714 43.5273 0.0626362 36.5251C0.260649 32.459 0.888674 28.4718 2.6368 24.7122C3.35053 23.1768 4.21893 21.7275 5.38583 20.4754C5.838 19.99 5.78431 19.6774 5.45232 19.1698C3.86477 16.7389 3.14809 14.1245 3.8495 11.2599C4.37015 9.13175 5.57842 7.35317 7.42802 6.17534C13.927 2.0359 21.0288 0.1736 28.7863 1.78378C33.3824 2.73787 36.8161 5.4729 39.41 9.19088C42.1566 13.1279 43.418 17.5568 44.0515 22.1939C44.9066 28.4539 44.5248 34.7077 43.9682 40.9611C43.8742 42.0179 43.6904 43.0746 43.6954 44.1309C43.7052 46.3569 42.7624 48.1677 41.2695 49.783C40.6695 50.432 40.075 51.0881 39.5169 51.7693C38.713 52.7513 38.1835 53.8652 38.8273 55.0691C39.4731 56.2772 40.7961 56.3406 42.3107 56.5747C41.6985 56.0804 41.2901 55.7824 40.9212 55.4442C40.6424 55.1883 40.2144 54.9433 40.3695 54.4981C40.5321 54.0332 41.035 54.0086 41.4596 53.9565C43.2461 53.7389 44.6273 54.5298 45.6287 55.8089C46.2976 56.6637 47.1153 56.92 48.091 57.0179C49.2569 57.1343 50.2347 57.1509 51.0868 55.9664C52.1951 54.4263 54.0477 54.1036 55.9495 54.2754C56.2465 54.3028 56.5829 54.3151 56.6844 54.6637C56.7804 54.9939 56.5233 55.1973 56.3224 55.4101C55.1052 56.6963 53.5586 57.456 51.8173 57.7634C50.9982 57.9082 50.7746 58.3065 50.7021 58.9626C50.5421 60.4152 50.8716 61.7714 51.5735 63.0552C51.7011 63.2888 51.8543 63.4856 52.1395 63.5627C54.492 64.2027 56.1559 65.8134 57.8735 67.3394C59.1014 68.4306 60.2319 69.6274 61.5899 70.5767C62.2489 71.0379 62.91 71.6387 63.8439 71.0616C64.0739 70.9192 64.301 71.0701 64.4355 71.2778C64.6207 71.5644 64.4369 71.7678 64.2227 71.9376C63.6996 72.3534 63.0444 72.3591 62.4199 72.4386C62.0992 72.4793 61.7825 72.4405 62.0233 72.9159C62.0785 73.0251 61.9958 73.2332 61.9199 73.3657C58.8561 78.6981 56.0731 80.3646 50.3376 79.7099C47.8182 79.4228 45.3666 79.2955 42.8664 79.7179C41.0788 80.0197 39.4021 79.6494 37.953 78.5368C37.3521 78.0751 36.7487 77.6158 36.1655 77.1338C34.4922 75.7507 33.0184 74.1519 31.2171 72.905C30.6457 72.5095 30.7186 72.1443 31.3068 71.8005C34.337 70.0285 36.9048 67.7362 39.2898 65.2387C39.9479 64.549 40.6577 63.9113 41.5345 63.4781C42.9925 62.7576 44.183 62.8872 45.4257 63.891C46.9571 65.1275 47.3497 65.1469 49.0481 64.1124C49.52 63.8253 50.284 63.6621 50.4238 63.2775C50.5701 62.8749 50.1056 62.2813 49.9441 61.761C49.6343 60.7605 49.5421 59.7246 49.7352 58.7071C49.8549 58.0761 49.5983 58.0941 49.0895 58.0184C46.5754 57.6428 44.0219 57.7578 41.5103 57.4394C37.4718 56.9267 36.3211 54.158 38.8194 51.0427C39.5538 50.1264 40.3789 49.2783 41.134 48.3767C42.1078 47.215 42.5595 45.8877 42.6698 44.3844C43.0264 39.5108 43.5895 34.6495 43.5328 29.7542C43.4727 24.5263 43.0131 19.3548 41.0611 14.4079C40.1045 11.9846 38.8056 9.74573 37.022 7.79072C32.7421 3.09926 27.2559 1.6168 20.986 2.3358C17.6754 2.71564 14.5166 3.66263 11.475 4.9573C9.36824 5.85416 7.48466 7.05375 6.10399 8.87868C3.75493 11.9827 4.39675 15.8057 6.36653 18.7351C6.66256 19.176 6.86156 18.9541 7.14528 18.7427C13.0448 14.3374 19.6358 13.7182 26.6239 15.5687C28.9823 16.1931 30.9728 17.5256 32.7771 19.0989C34.6469 20.7289 36.1896 22.6262 37.6693 24.5812C38.1082 25.1611 38.0136 25.5221 37.4732 25.9487C35.4764 27.5244 33.1012 28.1672 30.6167 28.4146C25.3915 28.9354 20.2476 28.5537 15.3126 26.6914C12.1247 25.488 9.30372 23.7241 7.04135 21.2213C6.60346 20.7374 6.39658 20.7776 6.00302 21.2511C3.55101 24.2009 2.33436 27.6403 1.67531 31.2906C0.53501 37.6121 0.944827 43.9133 2.10926 50.1846C3.25202 56.3406 5.17698 62.2681 7.71272 68.0333C11.6976 77.0946 18.3315 83.9856 26.5328 89.6378C29.7463 91.8525 33.1317 93.7781 36.6565 95.5104C44.0648 99.1522 51.5114 99.0855 59.0073 95.8954C65.526 93.1211 71.16 89.1666 75.8172 83.9615C77.5181 82.0604 79.3169 80.2383 80.8321 78.1868C82.2123 76.3178 83.3294 74.3174 84.2668 72.2106C84.9431 70.6893 84.6987 69.3289 83.7505 68.0281C82.8703 66.8204 81.6699 65.9477 80.406 65.1478C78.5293 63.9601 76.5098 63.0249 74.4839 62.1058C66.8761 58.6556 62.2199 52.9859 60.5264 45.0689C60.4654 44.7817 60.3215 44.5055 60.6594 44.2993C60.9348 44.1318 61.1909 44.2496 61.3958 44.4185C63.9478 46.5206 67.0441 46.9056 70.2295 47.0215C72.1708 47.0915 74.1331 47.1303 76.002 47.6592C81.3015 49.1582 84.8495 52.5086 86.8789 57.3992C86.9128 57.4872 86.9665 57.5662 87.1645 57.9295ZM77.1669 84.328C77.4639 84.486 77.6314 84.3228 77.8028 84.2547C80.736 83.0835 83.6151 83.2529 86.4282 84.6038C87.8014 85.2632 89.1402 85.9907 90.4953 86.6856C92.1528 87.5356 93.8581 88.2499 95.7412 88.5138C98.8335 88.9471 101.62 88.055 104.318 86.7438C107.605 85.1459 110.607 83.0911 113.779 81.3083C114.419 80.9483 114.027 80.7392 113.731 80.4828C111.736 78.7558 109.594 77.2303 107.171 76.0903C103.365 74.299 99.3871 73.659 95.1885 74.3903C90.5381 75.2006 86.5247 77.3197 82.7437 79.9218C80.7907 81.2662 78.9455 82.7363 77.1669 84.328ZM61.9509 46.0348C61.8455 46.4771 61.9829 46.7727 62.081 47.0754C64.0695 53.2461 68.0051 57.8585 74.0184 60.7955C76.0433 61.7846 78.1298 62.6593 80.0755 63.7964C82.2068 65.0414 84.1973 66.4326 85.4184 68.8351C86.5602 65.0296 87.0281 61.3684 85.9006 57.6731C84.3983 52.7508 78.6466 48.5792 73.0263 48.1658C69.2567 47.8886 65.3713 48.1454 61.9509 46.0348ZM26.7278 27.6696C27.8302 27.6157 28.939 27.6138 30.0345 27.4965C32.2402 27.26 34.3897 26.8257 36.2817 25.602C36.7437 25.3035 36.8092 25.0751 36.4526 24.628C35.5557 23.5065 34.6607 22.3873 33.6849 21.3263C29.8591 17.1656 25.0418 15.3213 19.3019 15.6041C15.1047 15.8113 11.175 16.7394 7.86049 19.4125C7.3561 19.8188 7.33541 20.0761 7.77331 20.5392C9.52882 22.3944 11.5937 23.8442 13.9038 24.9885C17.9291 26.9823 22.2662 27.5859 26.7278 27.6696ZM68.3258 12.3573C68.4922 11.6506 68.6188 11.0234 68.7878 10.4065C70.299 4.91142 76.1049 1.62437 81.796 3.03493C83.9993 3.5808 85.0273 4.96913 84.6273 7.10058C84.1234 9.79114 82.2462 11.3483 79.6415 12.1118C77.0329 12.8757 74.6016 12.468 72.5338 10.6795C71.8452 10.0835 71.6077 9.26892 71.8452 8.38389C72.4968 5.96011 77.7732 3.58269 80.1523 4.63091C81.1917 5.0888 81.6783 5.9568 81.4084 6.874C80.9818 8.32618 78.4924 9.53476 77.0511 8.96903C76.2955 8.67244 75.8847 8.09535 75.9177 7.3106C75.9497 6.54193 76.4556 6.1006 77.1954 5.88112C77.9501 5.65643 78.5884 5.82152 79.0687 6.42794C79.2962 6.71554 79.4947 7.09112 79.1298 7.37162C78.7874 7.63462 78.5402 7.39054 78.3421 7.07078C78.0954 6.67154 77.7205 6.62424 77.3018 6.83757C77.0112 6.98563 76.8073 7.19613 76.9024 7.52961C77.0226 7.95013 77.3575 8.18002 77.7915 8.19137C78.5219 8.21124 79.1652 7.93641 79.7238 7.49981C80.1661 7.15356 80.6759 6.77041 80.4434 6.14412C80.2159 5.53155 79.6135 5.31633 78.979 5.33004C76.7314 5.37971 74.8026 6.1848 73.2889 7.77653C72.4284 8.68143 72.5835 9.58017 73.579 10.3522C76.6068 12.7002 82.0211 11.3237 83.4319 7.84701C84.3017 5.70421 83.4456 4.22742 81.1025 3.82819C75.2065 2.82301 69.9852 6.61715 69.3863 12.3445C69.3538 12.6567 69.2636 12.9812 69.6286 13.2073C71.3428 14.2697 73.0268 15.4026 75.0917 15.756C77.923 16.2404 80.2834 15.1983 82.394 13.5243C83.7855 12.4202 85.0894 11.2131 86.4513 10.0731C88.7945 8.1119 91.4243 6.71837 94.5733 6.39246C95.0791 6.33995 95.5889 6.3111 96.2253 6.26143C94.6639 4.61578 92.8237 3.71183 90.7889 3.24779C87.4094 2.47676 84.016 1.73506 80.5961 1.15938C75.8098 0.354296 71.427 1.4257 67.5308 4.22553C65.6856 5.55142 64.1626 7.16018 63.1656 9.18094C63.0459 9.42266 62.6849 9.77127 63.2444 9.95859C65.0147 10.5508 66.6427 11.4292 68.3258 12.3573ZM78.5441 41.0217C78.3343 40.4375 78.0673 40.1925 77.7742 40.0113C73.5243 37.3846 71.4536 33.5048 70.7955 28.8214C70.7073 28.1975 70.4763 27.9785 69.7911 27.9454C66.4427 27.786 63.7813 26.3286 61.7682 23.788C60.4555 22.1309 59.89 20.2748 60.2801 18.1722C60.7131 15.8336 61.0594 13.4798 61.4879 11.1407C61.5923 10.5721 61.4249 10.4013 60.8609 10.3531C59.4221 10.2296 58.1493 10.6147 56.9918 11.4094C53.5221 13.7915 51.5957 19.2247 52.8532 23.1437C53.9147 26.453 56.4307 28.4359 59.6216 29.6757C63.7227 31.2693 67.1071 33.7513 69.9591 36.9546C70.2862 37.3221 70.6132 37.6873 71.0477 37.9442C73.3391 39.3022 76.0305 39.7071 78.5441 41.0217ZM89.9751 39.6513C92.0434 38.7242 93.8413 37.4721 95.588 36.1282C98.6306 33.7877 100.584 30.8469 100.912 27.084C101.237 23.3665 102.868 20.4044 105.939 18.1381C106.465 17.7498 106.919 17.2626 107.374 16.7924C108.344 15.7919 109.087 14.6477 109.482 13.3303C109.963 11.7324 109.274 10.8446 107.545 10.7537C106.346 10.6904 105.321 11.1251 104.383 11.7868C103.403 12.4784 102.591 13.335 101.894 14.2844C99.8674 17.044 98.0966 19.9527 96.4889 22.9535C95.4111 24.9644 94.6905 27.0901 94.2575 29.3152C93.5374 33.019 92.8365 36.738 89.9751 39.6513ZM60.5506 73.491C59.0517 73.361 57.7602 72.844 56.4952 72.2522C55.5347 71.8028 54.5703 71.3733 53.5329 71.0957C52.7567 70.8875 51.9986 70.8729 51.2794 71.1917C49.6279 71.9234 48.0142 71.9154 46.3478 71.2021C44.216 70.2896 42.1871 70.3804 40.1937 71.7262C38.4204 72.9234 36.4369 73.7484 34.041 73.9002C35.6369 75.3292 37.0506 76.6792 38.6564 77.832C39.8193 78.6669 41.1335 79.0075 42.5324 78.7762C45.2263 78.331 47.8743 78.3717 50.5908 78.7643C55.219 79.4332 58.7241 77.4971 60.5506 73.491ZM75.0114 24.989C75.3621 24.6186 75.7419 24.2695 76.0591 23.874C77.9964 21.4536 80.5075 20.3931 83.6954 20.7417C84.9184 20.8755 86.1769 20.9418 87.397 20.6745C93.3458 19.3713 97.3405 15.7896 99.9679 10.6454C100.257 10.0802 100.699 9.38954 100.198 8.84509C99.7186 8.32382 98.9399 8.59675 98.2951 8.74292C96.0933 9.24243 94.5447 10.6511 93.132 12.2272C91.9971 13.493 90.9475 14.8284 89.6161 15.9244C87.8325 17.3931 85.8046 18.1273 83.4343 17.9768C82.2669 17.903 81.0926 17.8785 79.9228 17.8908C78.3687 17.9078 77.1683 18.5776 76.3315 19.8415C75.3163 21.375 74.8843 23.0661 75.0114 24.989ZM61.02 72.413C58.8418 71.8695 57.0878 70.6671 55.4687 69.2499C54.1536 68.099 53.0019 66.8063 51.9562 65.4255C50.9893 64.1488 50.9041 64.1304 49.519 64.9842C47.5576 66.1937 46.6286 66.1379 44.849 64.7046C43.8017 63.8617 43.0023 63.7642 41.8423 64.4444C41.3064 64.759 40.7907 65.1474 40.3681 65.592C37.9894 68.091 35.4113 70.3677 32.5017 72.2886C32.4663 72.3118 32.4761 72.3969 32.4554 72.4996C33.3233 72.9267 34.2395 72.9509 35.1779 72.782C36.7836 72.493 38.2594 71.8558 39.5612 70.9528C41.899 69.3317 44.3224 69.2684 46.8576 70.3478C48.2029 70.9206 49.5027 70.8956 50.8268 70.318C51.8124 69.8885 52.8261 69.8894 53.8644 70.1643C55.1308 70.5001 56.2825 71.0852 57.4666 71.6051C58.5901 72.0994 59.7285 72.5564 61.02 72.413ZM68.208 14.7972C68.6829 13.6127 67.7504 13.0243 66.6234 12.485C65.5472 11.9699 64.4768 11.451 63.3759 10.9836C62.6923 10.6937 62.4504 10.8871 62.346 11.5494C61.9682 13.9599 61.5367 16.3629 61.1692 18.7744C60.9954 19.9129 61.2072 21.0231 61.78 22.0397C63.3099 24.7558 65.6935 26.4052 68.837 26.9251C70.5507 27.2084 70.4995 27.3541 70.0596 25.6422C69.1656 22.1527 68.2243 18.6708 68.208 14.7972ZM76.2817 37.6452C75.8162 36.2399 75.5828 35.0152 75.6503 33.7669C75.7429 32.0328 75.4118 30.3919 74.6661 28.8148C74.4075 28.267 74.3656 27.4075 73.9529 27.2084C73.5657 27.0211 72.8313 27.5613 72.2289 27.6975C71.7358 27.8091 71.5634 27.9629 71.7008 28.477C71.9821 29.5305 72.1343 30.6161 72.4382 31.6624C73.0938 33.922 74.2282 35.9187 76.2817 37.6452ZM53.095 65.0414C55.153 68.0697 58.6502 70.8677 60.5082 71.0266C57.9848 69.0177 55.9761 66.5291 53.095 65.0414ZM54.8018 55.3633C53.4911 55.282 52.466 55.7606 51.936 56.6996C53.0207 56.4796 53.9506 56.0903 54.8018 55.3633ZM44.5362 56.1627C43.8569 55.509 43.1609 54.9144 41.8527 54.9272C42.8009 55.6504 43.6126 56.0274 44.5362 56.1627Z"/>
</mask>
<path fill-rule="evenodd" clip-rule="evenodd" d="M87.1645 57.9295C87.3483 54.3525 87.2123 51.0574 86.9527 47.7656C86.8291 46.1961 86.6168 44.6323 86.4882 43.0632C86.4483 42.5779 86.2794 42.4824 85.8041 42.5628C82.4773 43.1252 79.3756 42.3958 76.3527 41.0827C74.9552 40.4753 73.4765 40.0416 72.0471 39.4999C70.9098 39.07 69.9542 38.4058 69.1484 37.4967C66.4161 34.4116 63.14 32.0612 59.1994 30.5181C55.6121 29.1128 52.8478 26.8319 51.8065 23.0538C50.6622 18.9044 52.6798 13.3436 56.2524 10.7717C57.7621 9.68519 59.4447 9.15067 61.3382 9.49787C61.8066 9.58396 61.9642 9.44016 62.1598 9.06505C65.3403 2.97296 72.1841 -0.649937 79.2958 0.0969691C83.421 0.53026 87.463 1.45455 91.4691 2.47676C93.9162 3.10068 96.0106 4.34852 97.5617 6.33002C97.737 6.55471 98.002 6.78318 97.8237 7.10152C97.6494 7.41372 97.3253 7.3579 97.0189 7.32716C93.268 6.94448 90.1392 8.3049 87.3566 10.5664C85.977 11.6875 84.6795 12.9022 83.2994 14.0219C81.0301 15.8634 78.5032 17.0705 75.4123 16.7441C73.4209 16.5341 71.7442 15.6046 70.0901 14.6146C69.8498 14.4708 69.6104 14.1326 69.3158 14.3029C69.039 14.4623 69.1927 14.8331 69.1922 15.107C69.1907 18.7133 70.1842 22.1589 71.0497 25.6247C71.425 27.128 71.4275 27.1034 72.915 26.4866C73.6243 26.1928 73.8814 25.7993 73.8701 25.0292C73.843 23.1049 74.3213 21.2767 75.3454 19.5955C76.3788 17.9002 77.9171 17.0157 79.9455 16.9494C80.8469 16.9196 81.7611 16.9173 82.6531 17.0251C85.5066 17.3699 87.864 16.4608 89.7944 14.485C90.847 13.4079 91.8055 12.2466 92.8315 11.1445C94.3541 9.50922 96.0928 8.18191 98.4138 7.7647C98.8695 7.68287 99.3482 7.64408 99.8088 7.68003C100.836 7.7595 101.385 8.36308 101.337 9.34272C101.318 9.72114 101.253 10.1237 101.093 10.4647C98.3301 16.3132 93.9191 20.2956 87.2237 21.6362C85.9361 21.894 84.617 21.7771 83.3181 21.6541C80.8666 21.4233 78.8421 22.148 77.257 23.9814C76.7654 24.55 76.297 25.1673 75.6966 25.611C74.8907 26.207 74.873 26.8678 75.2449 27.6332C76.3428 29.8938 76.6167 32.2683 76.6871 34.7494C76.7575 37.2247 77.7294 39.3543 80.4691 40.3419C83.4934 41.4323 86.3114 41.3788 88.8245 39.2455C91.0568 37.35 92.2552 34.8373 92.6409 32.0919C93.5492 25.6223 96.6642 20.1078 100.323 14.7929C101.231 13.4736 102.239 12.2296 103.537 11.2381C104.864 10.224 106.336 9.59105 108.086 9.88433C110.147 10.2306 110.985 11.4912 110.452 13.449C110.028 15.0081 109.152 16.3307 108.019 17.4981C107.517 18.0152 107.009 18.5402 106.43 18.9707C103.712 20.9947 102.225 23.6125 101.925 26.9236C101.545 31.1302 99.4733 34.484 95.9722 37.0066C93.4103 38.8524 90.9854 40.9171 87.9172 42.007C87.2414 42.2473 87.4606 42.7056 87.5103 43.1162C88.0659 47.6885 88.3787 52.2745 88.226 56.8784C88.0379 62.5642 87.2458 68.1435 84.8441 73.4173C83.7969 75.7152 82.428 77.8296 80.9601 79.9351C81.27 79.726 81.5813 79.5198 81.8881 79.3074C85.8863 76.5425 90.1209 74.272 95.0521 73.4234C99.4586 72.6647 103.642 73.3127 107.633 75.2062C110.786 76.7024 113.486 78.7832 116 81.2316C112.045 83.2609 108.494 85.7812 104.577 87.73C99.593 90.2096 94.7215 90.2049 89.855 87.4774C88.528 86.7339 87.1621 86.048 85.7824 85.398C82.9723 84.0755 80.1651 84.1904 77.3777 85.5073C75.4079 86.4382 73.6997 87.7263 72.0294 89.0687C67.3776 92.807 62.3736 95.9758 56.5706 97.8414C50.1771 99.8967 43.8835 99.7903 37.7136 97.0269C27.8829 92.623 19.3122 86.6099 12.7029 78.3003C7.69942 72.01 4.82134 64.6928 2.69148 57.1093C0.800012 50.3738 -0.278714 43.5273 0.0626362 36.5251C0.260649 32.459 0.888674 28.4718 2.6368 24.7122C3.35053 23.1768 4.21893 21.7275 5.38583 20.4754C5.838 19.99 5.78431 19.6774 5.45232 19.1698C3.86477 16.7389 3.14809 14.1245 3.8495 11.2599C4.37015 9.13175 5.57842 7.35317 7.42802 6.17534C13.927 2.0359 21.0288 0.1736 28.7863 1.78378C33.3824 2.73787 36.8161 5.4729 39.41 9.19088C42.1566 13.1279 43.418 17.5568 44.0515 22.1939C44.9066 28.4539 44.5248 34.7077 43.9682 40.9611C43.8742 42.0179 43.6904 43.0746 43.6954 44.1309C43.7052 46.3569 42.7624 48.1677 41.2695 49.783C40.6695 50.432 40.075 51.0881 39.5169 51.7693C38.713 52.7513 38.1835 53.8652 38.8273 55.0691C39.4731 56.2772 40.7961 56.3406 42.3107 56.5747C41.6985 56.0804 41.2901 55.7824 40.9212 55.4442C40.6424 55.1883 40.2144 54.9433 40.3695 54.4981C40.5321 54.0332 41.035 54.0086 41.4596 53.9565C43.2461 53.7389 44.6273 54.5298 45.6287 55.8089C46.2976 56.6637 47.1153 56.92 48.091 57.0179C49.2569 57.1343 50.2347 57.1509 51.0868 55.9664C52.1951 54.4263 54.0477 54.1036 55.9495 54.2754C56.2465 54.3028 56.5829 54.3151 56.6844 54.6637C56.7804 54.9939 56.5233 55.1973 56.3224 55.4101C55.1052 56.6963 53.5586 57.456 51.8173 57.7634C50.9982 57.9082 50.7746 58.3065 50.7021 58.9626C50.5421 60.4152 50.8716 61.7714 51.5735 63.0552C51.7011 63.2888 51.8543 63.4856 52.1395 63.5627C54.492 64.2027 56.1559 65.8134 57.8735 67.3394C59.1014 68.4306 60.2319 69.6274 61.5899 70.5767C62.2489 71.0379 62.91 71.6387 63.8439 71.0616C64.0739 70.9192 64.301 71.0701 64.4355 71.2778C64.6207 71.5644 64.4369 71.7678 64.2227 71.9376C63.6996 72.3534 63.0444 72.3591 62.4199 72.4386C62.0992 72.4793 61.7825 72.4405 62.0233 72.9159C62.0785 73.0251 61.9958 73.2332 61.9199 73.3657C58.8561 78.6981 56.0731 80.3646 50.3376 79.7099C47.8182 79.4228 45.3666 79.2955 42.8664 79.7179C41.0788 80.0197 39.4021 79.6494 37.953 78.5368C37.3521 78.0751 36.7487 77.6158 36.1655 77.1338C34.4922 75.7507 33.0184 74.1519 31.2171 72.905C30.6457 72.5095 30.7186 72.1443 31.3068 71.8005C34.337 70.0285 36.9048 67.7362 39.2898 65.2387C39.9479 64.549 40.6577 63.9113 41.5345 63.4781C42.9925 62.7576 44.183 62.8872 45.4257 63.891C46.9571 65.1275 47.3497 65.1469 49.0481 64.1124C49.52 63.8253 50.284 63.6621 50.4238 63.2775C50.5701 62.8749 50.1056 62.2813 49.9441 61.761C49.6343 60.7605 49.5421 59.7246 49.7352 58.7071C49.8549 58.0761 49.5983 58.0941 49.0895 58.0184C46.5754 57.6428 44.0219 57.7578 41.5103 57.4394C37.4718 56.9267 36.3211 54.158 38.8194 51.0427C39.5538 50.1264 40.3789 49.2783 41.134 48.3767C42.1078 47.215 42.5595 45.8877 42.6698 44.3844C43.0264 39.5108 43.5895 34.6495 43.5328 29.7542C43.4727 24.5263 43.0131 19.3548 41.0611 14.4079C40.1045 11.9846 38.8056 9.74573 37.022 7.79072C32.7421 3.09926 27.2559 1.6168 20.986 2.3358C17.6754 2.71564 14.5166 3.66263 11.475 4.9573C9.36824 5.85416 7.48466 7.05375 6.10399 8.87868C3.75493 11.9827 4.39675 15.8057 6.36653 18.7351C6.66256 19.176 6.86156 18.9541 7.14528 18.7427C13.0448 14.3374 19.6358 13.7182 26.6239 15.5687C28.9823 16.1931 30.9728 17.5256 32.7771 19.0989C34.6469 20.7289 36.1896 22.6262 37.6693 24.5812C38.1082 25.1611 38.0136 25.5221 37.4732 25.9487C35.4764 27.5244 33.1012 28.1672 30.6167 28.4146C25.3915 28.9354 20.2476 28.5537 15.3126 26.6914C12.1247 25.488 9.30372 23.7241 7.04135 21.2213C6.60346 20.7374 6.39658 20.7776 6.00302 21.2511C3.55101 24.2009 2.33436 27.6403 1.67531 31.2906C0.53501 37.6121 0.944827 43.9133 2.10926 50.1846C3.25202 56.3406 5.17698 62.2681 7.71272 68.0333C11.6976 77.0946 18.3315 83.9856 26.5328 89.6378C29.7463 91.8525 33.1317 93.7781 36.6565 95.5104C44.0648 99.1522 51.5114 99.0855 59.0073 95.8954C65.526 93.1211 71.16 89.1666 75.8172 83.9615C77.5181 82.0604 79.3169 80.2383 80.8321 78.1868C82.2123 76.3178 83.3294 74.3174 84.2668 72.2106C84.9431 70.6893 84.6987 69.3289 83.7505 68.0281C82.8703 66.8204 81.6699 65.9477 80.406 65.1478C78.5293 63.9601 76.5098 63.0249 74.4839 62.1058C66.8761 58.6556 62.2199 52.9859 60.5264 45.0689C60.4654 44.7817 60.3215 44.5055 60.6594 44.2993C60.9348 44.1318 61.1909 44.2496 61.3958 44.4185C63.9478 46.5206 67.0441 46.9056 70.2295 47.0215C72.1708 47.0915 74.1331 47.1303 76.002 47.6592C81.3015 49.1582 84.8495 52.5086 86.8789 57.3992C86.9128 57.4872 86.9665 57.5662 87.1645 57.9295ZM77.1669 84.328C77.4639 84.486 77.6314 84.3228 77.8028 84.2547C80.736 83.0835 83.6151 83.2529 86.4282 84.6038C87.8014 85.2632 89.1402 85.9907 90.4953 86.6856C92.1528 87.5356 93.8581 88.2499 95.7412 88.5138C98.8335 88.9471 101.62 88.055 104.318 86.7438C107.605 85.1459 110.607 83.0911 113.779 81.3083C114.419 80.9483 114.027 80.7392 113.731 80.4828C111.736 78.7558 109.594 77.2303 107.171 76.0903C103.365 74.299 99.3871 73.659 95.1885 74.3903C90.5381 75.2006 86.5247 77.3197 82.7437 79.9218C80.7907 81.2662 78.9455 82.7363 77.1669 84.328ZM61.9509 46.0348C61.8455 46.4771 61.9829 46.7727 62.081 47.0754C64.0695 53.2461 68.0051 57.8585 74.0184 60.7955C76.0433 61.7846 78.1298 62.6593 80.0755 63.7964C82.2068 65.0414 84.1973 66.4326 85.4184 68.8351C86.5602 65.0296 87.0281 61.3684 85.9006 57.6731C84.3983 52.7508 78.6466 48.5792 73.0263 48.1658C69.2567 47.8886 65.3713 48.1454 61.9509 46.0348ZM26.7278 27.6696C27.8302 27.6157 28.939 27.6138 30.0345 27.4965C32.2402 27.26 34.3897 26.8257 36.2817 25.602C36.7437 25.3035 36.8092 25.0751 36.4526 24.628C35.5557 23.5065 34.6607 22.3873 33.6849 21.3263C29.8591 17.1656 25.0418 15.3213 19.3019 15.6041C15.1047 15.8113 11.175 16.7394 7.86049 19.4125C7.3561 19.8188 7.33541 20.0761 7.77331 20.5392C9.52882 22.3944 11.5937 23.8442 13.9038 24.9885C17.9291 26.9823 22.2662 27.5859 26.7278 27.6696ZM68.3258 12.3573C68.4922 11.6506 68.6188 11.0234 68.7878 10.4065C70.299 4.91142 76.1049 1.62437 81.796 3.03493C83.9993 3.5808 85.0273 4.96913 84.6273 7.10058C84.1234 9.79114 82.2462 11.3483 79.6415 12.1118C77.0329 12.8757 74.6016 12.468 72.5338 10.6795C71.8452 10.0835 71.6077 9.26892 71.8452 8.38389C72.4968 5.96011 77.7732 3.58269 80.1523 4.63091C81.1917 5.0888 81.6783 5.9568 81.4084 6.874C80.9818 8.32618 78.4924 9.53476 77.0511 8.96903C76.2955 8.67244 75.8847 8.09535 75.9177 7.3106C75.9497 6.54193 76.4556 6.1006 77.1954 5.88112C77.9501 5.65643 78.5884 5.82152 79.0687 6.42794C79.2962 6.71554 79.4947 7.09112 79.1298 7.37162C78.7874 7.63462 78.5402 7.39054 78.3421 7.07078C78.0954 6.67154 77.7205 6.62424 77.3018 6.83757C77.0112 6.98563 76.8073 7.19613 76.9024 7.52961C77.0226 7.95013 77.3575 8.18002 77.7915 8.19137C78.5219 8.21124 79.1652 7.93641 79.7238 7.49981C80.1661 7.15356 80.6759 6.77041 80.4434 6.14412C80.2159 5.53155 79.6135 5.31633 78.979 5.33004C76.7314 5.37971 74.8026 6.1848 73.2889 7.77653C72.4284 8.68143 72.5835 9.58017 73.579 10.3522C76.6068 12.7002 82.0211 11.3237 83.4319 7.84701C84.3017 5.70421 83.4456 4.22742 81.1025 3.82819C75.2065 2.82301 69.9852 6.61715 69.3863 12.3445C69.3538 12.6567 69.2636 12.9812 69.6286 13.2073C71.3428 14.2697 73.0268 15.4026 75.0917 15.756C77.923 16.2404 80.2834 15.1983 82.394 13.5243C83.7855 12.4202 85.0894 11.2131 86.4513 10.0731C88.7945 8.1119 91.4243 6.71837 94.5733 6.39246C95.0791 6.33995 95.5889 6.3111 96.2253 6.26143C94.6639 4.61578 92.8237 3.71183 90.7889 3.24779C87.4094 2.47676 84.016 1.73506 80.5961 1.15938C75.8098 0.354296 71.427 1.4257 67.5308 4.22553C65.6856 5.55142 64.1626 7.16018 63.1656 9.18094C63.0459 9.42266 62.6849 9.77127 63.2444 9.95859C65.0147 10.5508 66.6427 11.4292 68.3258 12.3573ZM78.5441 41.0217C78.3343 40.4375 78.0673 40.1925 77.7742 40.0113C73.5243 37.3846 71.4536 33.5048 70.7955 28.8214C70.7073 28.1975 70.4763 27.9785 69.7911 27.9454C66.4427 27.786 63.7813 26.3286 61.7682 23.788C60.4555 22.1309 59.89 20.2748 60.2801 18.1722C60.7131 15.8336 61.0594 13.4798 61.4879 11.1407C61.5923 10.5721 61.4249 10.4013 60.8609 10.3531C59.4221 10.2296 58.1493 10.6147 56.9918 11.4094C53.5221 13.7915 51.5957 19.2247 52.8532 23.1437C53.9147 26.453 56.4307 28.4359 59.6216 29.6757C63.7227 31.2693 67.1071 33.7513 69.9591 36.9546C70.2862 37.3221 70.6132 37.6873 71.0477 37.9442C73.3391 39.3022 76.0305 39.7071 78.5441 41.0217ZM89.9751 39.6513C92.0434 38.7242 93.8413 37.4721 95.588 36.1282C98.6306 33.7877 100.584 30.8469 100.912 27.084C101.237 23.3665 102.868 20.4044 105.939 18.1381C106.465 17.7498 106.919 17.2626 107.374 16.7924C108.344 15.7919 109.087 14.6477 109.482 13.3303C109.963 11.7324 109.274 10.8446 107.545 10.7537C106.346 10.6904 105.321 11.1251 104.383 11.7868C103.403 12.4784 102.591 13.335 101.894 14.2844C99.8674 17.044 98.0966 19.9527 96.4889 22.9535C95.4111 24.9644 94.6905 27.0901 94.2575 29.3152C93.5374 33.019 92.8365 36.738 89.9751 39.6513ZM60.5506 73.491C59.0517 73.361 57.7602 72.844 56.4952 72.2522C55.5347 71.8028 54.5703 71.3733 53.5329 71.0957C52.7567 70.8875 51.9986 70.8729 51.2794 71.1917C49.6279 71.9234 48.0142 71.9154 46.3478 71.2021C44.216 70.2896 42.1871 70.3804 40.1937 71.7262C38.4204 72.9234 36.4369 73.7484 34.041 73.9002C35.6369 75.3292 37.0506 76.6792 38.6564 77.832C39.8193 78.6669 41.1335 79.0075 42.5324 78.7762C45.2263 78.331 47.8743 78.3717 50.5908 78.7643C55.219 79.4332 58.7241 77.4971 60.5506 73.491ZM75.0114 24.989C75.3621 24.6186 75.7419 24.2695 76.0591 23.874C77.9964 21.4536 80.5075 20.3931 83.6954 20.7417C84.9184 20.8755 86.1769 20.9418 87.397 20.6745C93.3458 19.3713 97.3405 15.7896 99.9679 10.6454C100.257 10.0802 100.699 9.38954 100.198 8.84509C99.7186 8.32382 98.9399 8.59675 98.2951 8.74292C96.0933 9.24243 94.5447 10.6511 93.132 12.2272C91.9971 13.493 90.9475 14.8284 89.6161 15.9244C87.8325 17.3931 85.8046 18.1273 83.4343 17.9768C82.2669 17.903 81.0926 17.8785 79.9228 17.8908C78.3687 17.9078 77.1683 18.5776 76.3315 19.8415C75.3163 21.375 74.8843 23.0661 75.0114 24.989ZM61.02 72.413C58.8418 71.8695 57.0878 70.6671 55.4687 69.2499C54.1536 68.099 53.0019 66.8063 51.9562 65.4255C50.9893 64.1488 50.9041 64.1304 49.519 64.9842C47.5576 66.1937 46.6286 66.1379 44.849 64.7046C43.8017 63.8617 43.0023 63.7642 41.8423 64.4444C41.3064 64.759 40.7907 65.1474 40.3681 65.592C37.9894 68.091 35.4113 70.3677 32.5017 72.2886C32.4663 72.3118 32.4761 72.3969 32.4554 72.4996C33.3233 72.9267 34.2395 72.9509 35.1779 72.782C36.7836 72.493 38.2594 71.8558 39.5612 70.9528C41.899 69.3317 44.3224 69.2684 46.8576 70.3478C48.2029 70.9206 49.5027 70.8956 50.8268 70.318C51.8124 69.8885 52.8261 69.8894 53.8644 70.1643C55.1308 70.5001 56.2825 71.0852 57.4666 71.6051C58.5901 72.0994 59.7285 72.5564 61.02 72.413ZM68.208 14.7972C68.6829 13.6127 67.7504 13.0243 66.6234 12.485C65.5472 11.9699 64.4768 11.451 63.3759 10.9836C62.6923 10.6937 62.4504 10.8871 62.346 11.5494C61.9682 13.9599 61.5367 16.3629 61.1692 18.7744C60.9954 19.9129 61.2072 21.0231 61.78 22.0397C63.3099 24.7558 65.6935 26.4052 68.837 26.9251C70.5507 27.2084 70.4995 27.3541 70.0596 25.6422C69.1656 22.1527 68.2243 18.6708 68.208 14.7972ZM76.2817 37.6452C75.8162 36.2399 75.5828 35.0152 75.6503 33.7669C75.7429 32.0328 75.4118 30.3919 74.6661 28.8148C74.4075 28.267 74.3656 27.4075 73.9529 27.2084C73.5657 27.0211 72.8313 27.5613 72.2289 27.6975C71.7358 27.8091 71.5634 27.9629 71.7008 28.477C71.9821 29.5305 72.1343 30.6161 72.4382 31.6624C73.0938 33.922 74.2282 35.9187 76.2817 37.6452ZM53.095 65.0414C55.153 68.0697 58.6502 70.8677 60.5082 71.0266C57.9848 69.0177 55.9761 66.5291 53.095 65.0414ZM54.8018 55.3633C53.4911 55.282 52.466 55.7606 51.936 56.6996C53.0207 56.4796 53.9506 56.0903 54.8018 55.3633ZM44.5362 56.1627C43.8569 55.509 43.1609 54.9144 41.8527 54.9272C42.8009 55.6504 43.6126 56.0274 44.5362 56.1627Z" stroke="white" stroke-width="2.75971" mask="url(#path-1-inside-1)"/>
</svg>
