<svg width="117" height="100" viewBox="0 0 117 100" fill="none" xmlns="http://www.w3.org/2000/svg">
<path d="M47.6107 65.7497L47.4434 66.113L47.6107 65.7497ZM62.6107 71.7497L62.3279 72.0326L62.419 72.1237L62.5462 72.1445L62.6107 71.7497ZM48.1107 79.2497L48.147 78.8512L48.1351 78.8505L48.1107 79.2497ZM42.1107 79.7497V80.1497H42.1627L42.2129 80.1365L42.1107 79.7497ZM36.6107 76.7497L36.8935 76.4669L36.8913 76.4647L36.6107 76.7497ZM34.6107 73.7497L34.4621 74.1211L34.5602 74.1604L34.6649 74.146L34.6107 73.7497ZM41.7112 71.2383L41.5183 70.8879L41.5063 70.8945L41.4948 70.9019L41.7112 71.2383ZM44.1859 70.467V70.067H44.1782L44.1706 70.0673L44.1859 70.467ZM50.6107 71.2497L50.7372 71.6292L50.7499 71.625L50.7623 71.6199L50.6107 71.2497ZM53.1107 70.7497L53.1125 71.1497L53.1571 71.1495L53.2006 71.1395L53.1107 70.7497ZM56.6107 71.7497L56.7804 71.3875L56.7737 71.3843L56.7669 71.3814L56.6107 71.7497ZM61.6107 73.2497L61.5808 73.6486L61.6476 73.6536L61.7123 73.6366L61.6107 73.2497ZM58.6107 70.7497L58.391 71.0839L58.3988 71.0891L58.4068 71.0938L58.6107 70.7497ZM50.7605 60.6898L50.381 60.8162L50.7605 60.6898ZM54.4576 55.1675L54.4406 54.7678L54.4377 54.768L54.4576 55.1675ZM49.8713 57.8346L49.8447 58.2338L49.8739 58.2357L49.903 58.2334L49.8713 57.8346ZM43.2258 56.2903L43.4923 55.992L43.4746 55.9762L43.4553 55.9626L43.2258 56.2903ZM43.2726 57.4134L43.2223 57.8102L43.2372 57.8121L43.2523 57.8129L43.2726 57.4134ZM39.6222 56.2902L39.3588 56.5912L39.3896 56.6182L39.4253 56.6384L39.6222 56.2902ZM39.8094 51.4231L39.5245 51.1423L39.4889 51.1784L39.4635 51.2223L39.8094 51.4231ZM43.6938 45.7135L44.0916 45.7556L44.092 45.7506L43.6938 45.7135ZM43.2946 17.9112L43.685 17.8236L43.6831 17.8159L43.2946 17.9112ZM24.3161 1.83912L24.302 2.2391L24.3157 2.23912L24.3161 1.83912ZM6.35366 8.60626L6.0515 8.34415L6.03883 8.35875L6.02763 8.37451L6.35366 8.60626ZM23.8148 28.2815L23.7755 28.6795L23.7897 28.6809L23.804 28.6813L23.8148 28.2815ZM22.52 15.4571L22.4944 15.8563L22.4957 15.8564L22.52 15.4571ZM7.14752 20.1357L6.90949 19.8142L6.87242 19.8417L6.84258 19.8768L7.14752 20.1357ZM1.37229 33.3517L0.979519 33.2761L0.973389 33.3079L0.972458 33.3402L1.37229 33.3517ZM3.51696 55.9903L3.13062 56.0939L3.13252 56.101L3.13469 56.108L3.51696 55.9903ZM9.32715 71.6382L8.9702 71.8188L8.97612 71.8305L8.98279 71.8417L9.32715 71.6382ZM27.1585 90.4447L26.9285 90.7719L26.9348 90.7764L26.9413 90.7806L27.1585 90.4447ZM48.0547 99.0817L48.0208 99.4803L48.0447 99.4823L48.0686 99.4815L48.0547 99.0817ZM75.2196 86.5441L75.4817 86.8465L75.4901 86.8388L75.2196 86.5441ZM81.2462 81.0118L81.0211 80.6812L80.9971 80.6975L80.9757 80.7172L81.2462 81.0118ZM98.0565 73.8276L98.0588 73.4276L98.0376 73.4274L98.0164 73.4296L98.0565 73.8276ZM98.7609 89.5109L98.7766 89.9106L98.794 89.9099L98.8114 89.9077L98.7609 89.5109ZM82.1571 84.2301L82.1834 84.6295L82.1973 84.6281L82.1571 84.2301ZM74.3191 87.137L74.0376 86.8528L74.5637 87.4535L74.3191 87.137ZM85.8123 71.0094L86.1941 71.1288L86.2122 71.0709L86.2123 71.0104L85.8123 71.0094ZM76.2355 62.414L76.07 62.7781L76.0738 62.7798L76.2355 62.414ZM74.8068 48.0673L74.8868 47.6754L74.8566 47.6692L74.8259 47.6678L74.8068 48.0673ZM87.5462 59.497L87.9461 59.4875L87.9448 59.4336L87.9293 59.3821L87.5462 59.497ZM85.5222 71.8196L85.1545 71.662L85.8847 71.9887L85.5222 71.8196ZM88.3796 56.58L88.7788 56.6045L88.7796 56.5922L88.7796 56.5799L88.3796 56.58ZM77.6601 38.1764L77.2971 38.3446L77.3124 38.3776L77.3334 38.4073L77.6601 38.1764ZM76.6896 34.165L76.2896 34.159L76.2896 34.1604L76.6896 34.165ZM74.8101 26.4529L74.4106 26.4326L74.4104 26.4369L74.8101 26.4529ZM79.6059 17.6713L79.5103 17.283L79.5008 17.2853L79.4914 17.2881L79.6059 17.6713ZM86.508 17.6065L86.612 17.9928L86.6194 17.9907L86.508 17.6065ZM95.9052 9.82954L95.7062 9.48253L95.6955 9.48868L95.6852 9.49547L95.9052 9.82954ZM101.284 8.7926L101.578 8.52065L101.541 8.48132L101.496 8.45298L101.284 8.7926ZM100.118 12.6811L99.782 12.4636L99.7767 12.4718L99.7718 12.4802L100.118 12.6811ZM86.9293 21.6246L86.9518 22.024L86.9764 22.0226L87.0008 22.0182L86.9293 21.6246ZM80.9345 21.6895L81.0138 22.0815L81.0292 22.0784L81.0444 22.0741L80.9345 21.6895ZM73.9028 27.0037L73.7641 26.6286L73.7493 26.634L73.7349 26.6407L73.9028 27.0037ZM66.0934 26.5825L65.9254 26.9456L65.9318 26.9484L66.0934 26.5825ZM61.2004 20.1341L61.5971 20.1856L61.6023 20.1456L61.5994 20.1055L61.2004 20.1341ZM75.5554 0.952687L75.605 1.3497L75.6137 1.34842L75.5554 0.952687ZM91.4334 2.99374L91.5426 2.60891L91.533 2.6062L91.5233 2.60397L91.4334 2.99374ZM90.3641 8.632L90.5419 8.99033L90.5534 8.98459L90.5646 8.97811L90.3641 8.632ZM78.0181 16.6034L77.9934 16.2042L77.9809 16.205L77.9685 16.2065L78.0181 16.6034ZM64.0196 10.9003L63.8692 11.271L63.8828 11.2765L63.8967 11.281L64.0196 10.9003ZM57.0851 11.516L56.8547 11.1889L56.8519 11.191L57.0851 11.516ZM52.6457 21.4316L52.2458 21.4211L52.2456 21.4314L52.2458 21.4418L52.6457 21.4316ZM58.2516 29.6299L58.0554 29.9784L58.0779 29.9911L58.1019 30.0008L58.2516 29.6299ZM69.1718 36.4671L69.4702 36.2007L69.4649 36.1948L69.4593 36.1891L69.1718 36.4671ZM71.2781 38.5086L71.5211 38.1909L71.5 38.1747L71.4769 38.1615L71.2781 38.5086ZM79.1847 41.7814L79.0234 42.1475L79.063 42.1649L79.1055 42.1735L79.1847 41.7814ZM93.0297 39.3431L93.2464 39.6794L93.253 39.6749L93.0297 39.3431ZM101.456 30.219L101.829 30.3642L101.837 30.3419L101.843 30.3187L101.456 30.219ZM104.408 21.2021L104.709 21.4652L104.721 21.4524L104.731 21.4387L104.408 21.2021ZM110.258 14.5469L109.893 14.3844L109.884 14.4031L109.878 14.4226L110.258 14.5469ZM108.058 10.3605L108.113 9.96435L108.078 9.95944L108.042 9.96081L108.058 10.3605ZM102.476 13.9028L102.797 14.1416L102.811 14.1227L102.823 14.1022L102.476 13.9028ZM94.2104 29.7896L93.8274 29.6744L93.8187 29.7032L93.8145 29.7329L94.2104 29.7896ZM87.2332 41.3826L87.313 41.7746L87.3582 41.7654L87.4002 41.7461L87.2332 41.3826ZM75.5328 37.3573L75.7946 37.0546L75.7847 37.0465L75.5328 37.3573ZM69.5216 18.8943L69.1232 18.9305L69.1252 18.9522L69.1295 18.9735L69.5216 18.8943ZM72.7419 6.17414L72.4519 5.89863L72.4463 5.90451L72.441 5.91061L72.7419 6.17414ZM83.1503 3.9021L83.046 4.2885L83.0594 4.29164L83.1503 3.9021ZM84.1614 8.98484L83.8205 8.77558L83.8141 8.78591L83.8084 8.7966L84.1614 8.98484ZM77.685 12.3187L77.6473 12.7169L77.659 12.718L77.6707 12.7184L77.685 12.3187ZM72.9028 9.25811L73.2979 9.32049L73.3035 9.28526L73.3027 9.2496L72.9028 9.25811ZM76.8652 5.56902L76.7562 5.18416L76.7407 5.18854L76.7256 5.19416L76.8652 5.56902ZM81.0735 5.56902L81.2831 5.22828L81.2759 5.22405L81.0735 5.56902ZM81.3467 7.45455L81.6832 7.67086L81.6959 7.65108L81.7062 7.62996L81.3467 7.45455ZM78.5594 8.95751L78.5594 9.35751L78.6038 9.35751L78.647 9.34781L78.5594 8.95751ZM78.0129 6.52545L77.9305 6.13403L77.9129 6.13773L77.8957 6.143L78.0129 6.52545ZM79.2296 7.56625C79.3667 7.73943 79.6183 7.76865 79.7915 7.6315C79.9647 7.49436 79.9939 7.24278 79.8568 7.06959L79.2296 7.56625ZM97.5593 6.65813L97.2587 6.92197L97.5593 6.65813ZM61.4723 45.3266L61.8594 45.2258L61.4723 45.3266ZM61.7245 45.1688L61.4746 45.4811L61.7245 45.1688ZM46.0409 56.8858L46.3733 56.6634L46.0409 56.8858ZM46.036 57.0006L46.3391 57.2615L46.036 57.0006ZM87.2706 42.3601L87.6647 42.2917L87.2706 42.3601ZM87.1197 42.2342L87.1217 42.6342L87.1197 42.2342ZM115.708 81.3865L115.983 81.0958L115.708 81.3865ZM115.7 81.4667L115.891 81.8181L115.7 81.4667ZM37.9954 25.5761L38.2577 25.878L37.9954 25.5761ZM38.013 25.3702L37.6988 25.6177L38.013 25.3702ZM41.717 55.0995L41.4433 55.3912L41.717 55.0995ZM41.7998 54.845L41.8534 55.2414L41.7998 54.845ZM56.2769 55.0897L56.2598 54.6901L56.2769 55.0897ZM56.386 55.342L56.1085 55.0539L56.386 55.342ZM64.2191 72.2297L64.0326 71.8759L64.2191 72.2297ZM63.9343 71.5787L63.8805 71.1824L63.9343 71.5787ZM43.2148 54.6538L43.1612 54.2574L43.2148 54.6538ZM43.2365 54.6557L43.3559 54.2739L43.2365 54.6557ZM32.2041 72.6984L32.398 73.0482L32.2041 72.6984ZM32.2093 72.7892L32.3579 72.4178L32.2093 72.7892ZM32.398 73.0482C35.1783 71.5067 37.3281 69.2216 39.1753 67.3758C40.1077 66.4442 40.9551 65.6316 41.7779 65.0505C42.5997 64.4703 43.3577 64.1498 44.1107 64.1498V63.3498C43.1237 63.3498 42.2034 63.7708 41.3165 64.397C40.4307 65.0225 39.5391 65.8814 38.6099 66.8099C36.7339 68.6843 34.6705 70.8735 32.0101 72.3486L32.398 73.0482ZM44.1107 64.1498C44.2736 64.1498 44.4564 64.2023 44.6792 64.3178C44.9037 64.4343 45.144 64.6012 45.4219 64.8063C45.9632 65.2056 46.6283 65.7377 47.4434 66.113L47.778 65.3864C47.0563 65.054 46.4713 64.5862 45.8968 64.1625C45.6169 63.956 45.3328 63.7556 45.0475 63.6076C44.7604 63.4588 44.4479 63.3498 44.1107 63.3498V64.1498ZM47.4434 66.113C47.6294 66.1987 47.8169 66.1732 47.9492 66.1376C48.0856 66.1008 48.2257 66.0359 48.3576 65.9675C48.4921 65.8976 48.641 65.8116 48.795 65.7228C48.9517 65.6324 49.1187 65.536 49.3003 65.4383C50.0247 65.0483 50.9561 64.6498 52.1107 64.6498V63.8498C50.7654 63.8498 49.6967 64.3163 48.9211 64.7339C48.7277 64.838 48.551 64.9399 48.3952 65.0298C48.2367 65.1213 48.1044 65.1975 47.9889 65.2575C47.8707 65.3188 47.7921 65.3514 47.741 65.3651C47.6858 65.38 47.717 65.3583 47.778 65.3864L47.4434 66.113ZM52.1107 64.6498C52.3419 64.6498 52.6728 64.7339 53.1005 64.9187C53.5207 65.1003 54.0021 65.3645 54.5237 65.6905C55.5667 66.3424 56.7401 67.2218 57.8598 68.1237C60.0996 69.928 62.0888 71.7935 62.3279 72.0326L62.8936 71.4669C62.6327 71.206 60.6219 69.3215 58.3617 67.5007C57.2314 66.5902 56.0298 65.6884 54.9477 65.0121C54.4069 64.6741 53.8882 64.3875 53.4178 64.1843C52.9549 63.9843 52.5046 63.8498 52.1107 63.8498V64.6498ZM62.5462 72.1445C62.485 72.1345 62.4232 72.1022 62.3779 72.0506C62.3382 72.0053 62.3279 71.9644 62.326 71.9556C62.3237 71.9454 62.331 71.9788 62.3116 72.0812C62.275 72.2746 62.1709 72.576 61.9904 72.9617C61.6331 73.7252 61.0143 74.7397 60.1968 75.7383C58.5415 77.7604 56.1871 79.5823 53.6469 79.3514L53.5745 80.1481C56.5343 80.4172 59.1241 78.3116 60.8159 76.245C61.6719 75.1993 62.3274 74.129 62.715 73.3008C62.9069 72.8907 63.0428 72.5194 63.0977 72.2301C63.124 72.0912 63.1399 71.9306 63.107 71.7824C63.0897 71.7046 63.0543 71.6085 62.9794 71.5231C62.899 71.4314 62.792 71.374 62.6752 71.355L62.5462 72.1445ZM53.6469 79.3514L48.1469 78.8514L48.0745 79.6481L53.5745 80.1481L53.6469 79.3514ZM48.1351 78.8505C45.5361 78.6918 44.1659 78.7931 42.0086 79.363L42.2129 80.1365C44.271 79.5928 45.5533 79.4944 48.0863 79.649L48.1351 78.8505ZM42.1107 79.3497C40.7663 79.3497 38.8628 78.4362 36.8935 76.4669L36.3278 77.0326C38.3586 79.0633 40.4552 80.1497 42.1107 80.1497V79.3497ZM36.8913 76.4647C35.086 74.6874 34.0937 73.7321 32.4915 72.3768L31.9748 72.9876C33.5534 74.3228 34.5284 75.2611 36.3301 77.0348L36.8913 76.4647ZM32.0608 73.1606L34.4621 74.1211L34.7593 73.3783L32.3579 72.4178L32.0608 73.1606ZM34.6649 74.146C36.0952 73.9504 37.1605 73.7979 38.2437 73.4459C39.3322 73.0921 40.4218 72.5431 41.9275 71.5747L41.4948 70.9019C40.0205 71.85 38.9954 72.3604 37.9964 72.685C36.9921 73.0114 35.9972 73.1564 34.5565 73.3534L34.6649 74.146ZM41.9041 71.5887C42.5666 71.2241 43.3802 70.8981 44.2012 70.8667L44.1706 70.0673C43.1727 70.1055 42.2319 70.4951 41.5183 70.8879L41.9041 71.5887ZM44.1859 70.867C44.6259 70.867 45.0443 70.9648 45.4869 71.11C45.7091 71.1829 45.9318 71.2658 46.1674 71.3533C46.4004 71.4399 46.6451 71.5306 46.899 71.6136C47.9342 71.9519 49.1321 72.1642 50.7372 71.6292L50.4842 70.8703C49.0893 71.3352 48.0748 71.1562 47.1476 70.8532C46.9109 70.7758 46.6806 70.6906 46.4459 70.6034C46.2137 70.5171 45.9759 70.4285 45.7364 70.3499C45.2556 70.1921 44.7459 70.067 44.1859 70.067V70.867ZM50.7623 71.6199C51.3232 71.3902 51.9118 71.2715 52.3662 71.2109C52.5921 71.1808 52.7815 71.1654 52.9134 71.1577C52.9793 71.1538 53.0306 71.1518 53.0647 71.1508C53.0818 71.1503 53.0945 71.15 53.1026 71.1499C53.1066 71.1498 53.1095 71.1498 53.1112 71.1497C53.112 71.1497 53.1125 71.1497 53.1128 71.1497C53.1129 71.1497 53.1129 71.1497 53.1129 71.1497C53.1128 71.1497 53.1128 71.1497 53.1127 71.1497C53.1127 71.1497 53.1127 71.1497 53.1126 71.1497C53.1126 71.1497 53.1125 71.1497 53.1107 70.7497C53.1089 70.3497 53.1089 70.3497 53.1088 70.3497C53.1087 70.3497 53.1086 70.3497 53.1086 70.3497C53.1084 70.3497 53.1083 70.3497 53.1081 70.3497C53.1077 70.3497 53.1073 70.3497 53.1068 70.3497C53.1058 70.3498 53.1044 70.3498 53.1028 70.3498C53.0995 70.3498 53.095 70.3499 53.0892 70.35C53.0778 70.3502 53.0616 70.3505 53.0409 70.3511C52.9996 70.3523 52.9405 70.3547 52.8663 70.359C52.718 70.3678 52.5088 70.3848 52.2605 70.4179C51.7667 70.4837 51.1053 70.615 50.4592 70.8796L50.7623 71.6199ZM53.2006 71.1395C53.433 71.0859 53.7534 71.1108 54.2881 71.274C54.8195 71.4361 55.5069 71.7162 56.4546 72.118L56.7669 71.3814C55.8262 70.9827 55.1 70.6853 54.5216 70.5088C53.9465 70.3333 53.4612 70.2584 53.0209 70.36L53.2006 71.1395ZM56.4411 72.112C58.621 73.133 59.7805 73.5136 61.5808 73.6486L61.6406 72.8508C59.9749 72.7259 58.9148 72.3872 56.7804 71.3875L56.4411 72.112ZM61.7123 73.6366C62.4005 73.456 63.4711 73.0763 64.4057 72.5835L64.0326 71.8759C63.1586 72.3366 62.1461 72.6956 61.5092 72.8628L61.7123 73.6366ZM63.8805 71.1824C62.1614 71.416 60.3402 71.3097 58.8147 70.4056L58.4068 71.0938C60.1505 72.1273 62.1799 72.2208 63.9882 71.9751L63.8805 71.1824ZM58.8305 70.4155C56.7271 69.0323 55.2262 67.8109 54.0422 66.3249C52.8594 64.8404 51.9752 63.0692 51.14 60.5633L50.381 60.8162C51.2342 63.376 52.1559 65.2412 53.4165 66.8234C54.6759 68.4042 56.2559 69.6799 58.391 71.0839L58.8305 70.4155ZM51.14 60.5633C50.8236 59.614 51.198 58.3944 51.9497 57.3523C52.3186 56.841 52.7616 56.3978 53.2143 56.0802C53.6718 55.7592 54.1115 55.5852 54.4776 55.567L54.4377 54.768C53.8678 54.7964 53.2835 55.0543 52.7548 55.4253C52.2214 55.7996 51.7163 56.3085 51.3009 56.8843C50.4842 58.0165 49.9461 59.5113 50.381 60.8162L51.14 60.5633ZM54.4747 55.5671L56.2939 55.4894L56.2598 54.6901L54.4406 54.7678L54.4747 55.5671ZM56.1085 55.0539C55.2105 55.9189 54.4008 56.4461 53.4535 56.7919C52.4961 57.1413 51.3764 57.3136 49.8396 57.4359L49.903 58.2334C51.4573 58.1097 52.6653 57.9312 53.7277 57.5434C54.8001 57.152 55.7023 56.5559 56.6635 55.63L56.1085 55.0539ZM49.8979 57.4355C47.8959 57.302 46.5326 57.1585 45.5403 56.934C44.5591 56.7121 43.9674 56.4165 43.4923 55.992L42.9592 56.5885C43.5642 57.1291 44.2933 57.4722 45.3638 57.7143C46.4233 57.954 47.8427 58.1002 49.8447 58.2338L49.8979 57.4355ZM43.4553 55.9626C42.7081 55.4393 42.3623 55.1566 41.9908 54.8079L41.4433 55.3912C41.8507 55.7736 42.2287 56.0802 42.9963 56.6179L43.4553 55.9626ZM41.8534 55.2414L43.2683 55.0502L43.1612 54.2574L41.7463 54.4486L41.8534 55.2414ZM43.1171 55.0374C43.7209 55.2263 44.1456 55.4263 44.524 55.7245C44.9065 56.0258 45.2649 56.4455 45.7085 57.1083L46.3733 56.6634C45.9094 55.9701 45.4964 55.4721 45.0191 55.096C44.5377 54.7168 44.014 54.4798 43.3559 54.2739L43.1171 55.0374ZM45.7329 56.7396C45.5998 56.8942 45.3945 56.9946 44.9919 57.0359C44.5789 57.0783 44.0381 57.0518 43.2929 57.0139L43.2523 57.8129C43.9726 57.8495 44.5853 57.8818 45.0735 57.8317C45.572 57.7806 46.0157 57.6373 46.3391 57.2615L45.7329 56.7396ZM43.3228 57.0166C41.7351 56.8154 40.9779 56.5974 39.8191 55.942L39.4253 56.6384C40.6974 57.3579 41.5611 57.5998 43.2223 57.8102L43.3228 57.0166ZM39.8856 55.9892C39.2637 55.4449 39.0184 54.999 39.0343 54.4282C39.0518 53.8019 39.3822 52.9559 40.1554 51.6239L39.4635 51.2223C38.6901 52.5546 38.2584 53.5572 38.2347 54.4059C38.2094 55.31 38.6438 55.9655 39.3588 56.5912L39.8856 55.9892ZM40.0943 51.7038C42.5145 49.248 43.8762 47.7899 44.0915 45.7556L43.296 45.6714C43.1158 47.3736 42.0028 48.6276 39.5245 51.1423L40.0943 51.7038ZM44.092 45.7506C45.3365 32.3987 45.5087 25.9548 43.6849 17.8236L42.9043 17.9987C44.6987 25.9989 44.5389 32.3355 43.2955 45.6764L44.092 45.7506ZM43.6831 17.8159C42.4909 12.9527 40.1901 8.85951 36.9069 5.97871C33.6199 3.09467 29.3687 1.44407 24.3165 1.43912L24.3157 2.23912C29.1836 2.24389 33.2451 3.8301 36.3792 6.58005C39.517 9.33325 41.7453 13.2712 42.9062 18.0064L43.6831 17.8159ZM24.3301 1.43936C19.5239 1.27065 11.1692 2.44455 6.0515 8.34415L6.65581 8.86837C11.5364 3.24213 19.584 2.07325 24.302 2.23887L24.3301 1.43936ZM6.02763 8.37451C3.43105 12.0274 4.06336 16.7691 7.22109 20.7297C10.3806 24.6924 16.085 27.9189 23.7755 28.6795L23.8542 27.8834C16.3394 27.1402 10.8487 23.9963 7.84661 20.231C4.8428 16.4635 4.34714 12.1195 6.67968 8.83801L6.02763 8.37451ZM23.804 28.6813C31.2057 28.8815 35.1885 28.5444 38.2577 25.878L37.7331 25.2741C34.9319 27.7076 31.2723 28.083 23.8256 27.8816L23.804 28.6813ZM38.3273 25.1228C35.3602 21.3546 32.9939 18.9265 30.5719 17.3977C28.1358 15.8599 25.6713 15.2489 22.5444 15.0578L22.4957 15.8564C25.5329 16.042 27.8552 16.6289 30.1448 18.0742C32.4485 19.5283 34.7466 21.8685 37.6988 25.6177L38.3273 25.1228ZM22.5457 15.0579C19.1304 14.8387 16.556 15.0279 14.157 15.7824C11.7602 16.5362 9.56943 17.8447 6.90949 19.8142L7.38555 20.4572C10.0172 18.5086 12.1244 17.2603 14.397 16.5455C16.6673 15.8315 19.1333 15.6405 22.4944 15.8563L22.5457 15.0579ZM6.84258 19.8768C5.15939 21.8596 3.99741 23.6079 3.10332 25.6725C2.21163 27.7315 1.59382 30.0882 0.979519 33.2761L1.76507 33.4274C2.37551 30.2596 2.98024 27.9698 3.83744 25.9904C4.69224 24.0166 5.8055 22.3347 7.45246 20.3946L6.84258 19.8768ZM0.972458 33.3402C0.682377 43.4245 1.09066 48.4883 3.13062 56.0939L3.90331 55.8867C1.88978 48.3796 1.48345 43.3986 1.77213 33.3632L0.972458 33.3402ZM3.13469 56.108C5.17564 62.7341 6.19918 66.3399 8.9702 71.8188L9.68409 71.4577C6.94883 66.0496 5.94355 62.5095 3.89924 55.8725L3.13469 56.108ZM8.98279 71.8417C11.4133 75.9542 13.5926 79.0695 16.3246 81.9691C19.0552 84.8672 22.3263 87.5376 26.9285 90.7719L27.3885 90.1174C22.8081 86.8984 19.5854 84.2634 16.9068 81.4205C14.2297 78.5791 12.0846 75.5178 9.67151 71.4347L8.98279 71.8417ZM26.9413 90.7806C36.3746 96.8786 41.0343 98.8864 48.0208 99.4803L48.0886 98.6832C41.2945 98.1056 36.7664 96.1794 27.3756 90.1088L26.9413 90.7806ZM48.0686 99.4815C57.4205 99.1566 64.9878 95.941 75.4816 86.8464L74.9576 86.2418C64.5553 95.2571 57.1564 98.3653 48.0408 98.682L48.0686 99.4815ZM75.4901 86.8388L81.5167 81.3065L80.9757 80.7172L74.9491 86.2494L75.4901 86.8388ZM81.4714 81.3425C88.1273 76.8101 92.1371 74.8261 98.0966 74.2255L98.0164 73.4296C91.8612 74.0499 87.7191 76.1202 81.0211 80.6812L81.4714 81.3425ZM98.0542 74.2275C101.064 74.2449 103.834 74.6256 106.631 75.7354C109.431 76.8458 112.28 78.6947 115.433 81.6771L115.983 81.0958C112.774 78.0608 109.841 76.1478 106.926 74.9918C104.011 73.8353 101.137 73.4453 98.0588 73.4276L98.0542 74.2275ZM115.508 81.1153C114.373 81.7324 113.065 82.5051 111.67 83.3212C110.273 84.1391 108.784 85.0033 107.277 85.8107C104.251 87.4325 101.202 88.797 98.7104 89.1141L98.8114 89.9077C101.462 89.5703 104.626 88.1392 107.655 86.5158C109.177 85.7006 110.676 84.8298 112.074 84.0117C113.475 83.1918 114.769 82.4276 115.891 81.8181L115.508 81.1153ZM98.7451 89.1112C95.3912 89.2431 92.6126 87.8469 89.9696 86.4261C88.6597 85.7218 87.3707 85.0054 86.0883 84.5023C84.8 83.997 83.4874 83.6937 82.1169 83.8322L82.1973 84.6281C83.3963 84.507 84.5753 84.7682 85.7962 85.2471C87.0229 85.7283 88.2608 86.4157 89.5908 87.1307C92.2278 88.5483 95.1816 90.052 98.7766 89.9106L98.7451 89.1112ZM82.1309 83.831C79.4554 84.0069 76.4286 85.0014 74.0745 86.8205L74.5637 87.4535C76.7775 85.7428 79.6476 84.796 82.1834 84.6293L82.1309 83.831ZM74.6006 87.4212C78.3834 83.6745 80.8207 81.0874 82.5409 78.695C84.2699 76.2903 85.2684 74.091 86.1941 71.1288L85.4305 70.8901C84.524 73.791 83.5593 75.9082 81.8914 78.228C80.2147 80.5599 77.8215 83.105 74.0376 86.8528L74.6006 87.4212ZM86.2123 71.0104C86.2164 69.2038 85.2864 67.6395 83.6153 66.2012C81.9504 64.7683 79.5105 63.4247 76.3973 62.0481L76.0738 62.7798C79.1676 64.1478 81.5199 65.4533 83.0935 66.8076C84.6609 68.1566 85.4157 69.5176 85.4123 71.0085L86.2123 71.0104ZM76.4011 62.0498C68.7991 58.5944 63.8717 52.9533 61.8594 45.2258L61.0852 45.4274C63.1626 53.4048 68.2645 59.2301 76.07 62.7781L76.4011 62.0498ZM61.4746 45.4811C63.146 46.8181 65.292 47.5012 67.5924 47.8832C69.892 48.2652 72.3936 48.3528 74.7878 48.4669L74.8259 47.6678C72.4109 47.5528 69.9656 47.4665 67.7235 47.0941C65.4822 46.7218 63.4917 46.0701 61.9744 44.8564L61.4746 45.4811ZM74.7269 48.4592C77.5991 49.0454 80.1816 50.0952 82.3051 51.8576C84.4254 53.6173 86.1115 56.1067 87.1631 59.6119L87.9293 59.3821C86.8378 55.7438 85.0712 53.1136 82.816 51.242C80.5641 49.373 77.8485 48.2798 74.8868 47.6754L74.7269 48.4592ZM87.1463 59.5065C87.2786 65.0675 86.4278 68.932 85.1597 71.6505L85.8847 71.9887C87.2183 69.1298 88.0805 65.1356 87.9461 59.4875L87.1463 59.5065ZM85.8898 71.9771C87.941 67.1908 88.3644 63.3808 88.7788 56.6045L87.9803 56.5556C87.5667 63.3192 87.1477 67.0108 85.1545 71.662L85.8898 71.9771ZM88.7796 56.5799C88.7774 50.6473 88.6138 47.7629 87.6647 42.2917L86.8764 42.4285C87.8157 47.8431 87.9774 50.6799 87.9796 56.5802L88.7796 56.5799ZM87.1176 41.8343C84.5783 41.8471 82.8454 41.6305 81.4787 41.0453C80.1261 40.4662 79.0909 39.5077 77.9867 37.9455L77.3334 38.4073C78.4875 40.04 79.6282 41.1233 81.1638 41.7808C82.6855 42.4323 84.5533 42.6472 87.1217 42.6342L87.1176 41.8343ZM78.023 38.0083C77.5891 37.0718 77.3556 36.4238 77.2298 35.8605C77.1049 35.3013 77.0821 34.808 77.0895 34.1697L76.2896 34.1604C76.2819 34.8248 76.3047 35.3884 76.4491 36.0348C76.5925 36.6772 76.8518 37.3835 77.2971 38.3446L78.023 38.0083ZM77.0895 34.171C77.1136 32.5656 76.6155 30.7847 76.1346 29.3371C75.8959 28.6189 75.6472 27.9428 75.4751 27.4392C75.3866 27.1804 75.3166 26.9626 75.2699 26.7879C75.2202 26.6016 75.2084 26.5044 75.2098 26.4688L74.4104 26.4369C74.4038 26.6039 74.4461 26.8037 74.497 26.9944C74.551 27.1965 74.6283 27.4353 74.7181 27.698C74.9025 28.2374 75.1343 28.864 75.3754 29.5894C75.8537 31.0291 76.3115 32.6991 76.2896 34.159L77.0895 34.171ZM75.2096 26.4731C75.338 23.9367 75.7425 22.0463 76.4733 20.6853C77.1937 19.3434 78.2412 18.4966 79.7205 18.0546L79.4914 17.2881C77.8123 17.7898 76.5915 18.7739 75.7684 20.3069C74.9557 21.8206 74.5415 23.8491 74.4106 26.4326L75.2096 26.4731ZM79.7016 18.0597C80.7443 17.8028 81.9815 17.8906 83.2283 18.0009C83.8399 18.0551 84.4553 18.1143 85.0217 18.1304C85.5866 18.1465 86.1347 18.1213 86.612 17.9928L86.404 17.2203C86.0389 17.3186 85.5824 17.3461 85.0445 17.3307C84.5082 17.3155 83.9226 17.2593 83.2988 17.204C82.0748 17.0957 80.7035 16.989 79.5103 17.283L79.7016 18.0597ZM86.6194 17.9907C88.963 17.3114 90.7095 15.7373 92.1796 14.161C92.5481 13.7659 92.9016 13.3679 93.2428 12.9826C93.5851 12.596 93.914 12.2232 94.2385 11.8721C94.8901 11.1673 95.5032 10.5732 96.1252 10.1636L95.6852 9.49547C94.9787 9.96074 94.3118 10.6143 93.651 11.3291C93.3194 11.6879 92.984 12.068 92.6438 12.4523C92.3024 12.8378 91.9552 13.2287 91.5946 13.6153C90.1483 15.1661 88.5248 16.6055 86.3967 17.2223L86.6194 17.9907ZM96.1042 10.1765C97.2353 9.52796 98.1727 9.06788 98.9914 8.8722C99.7918 8.6809 100.455 8.74746 101.073 9.13222L101.496 8.45298C100.656 7.93042 99.7631 7.86523 98.8055 8.09411C97.8662 8.31862 96.8431 8.83066 95.7062 9.48253L96.1042 10.1765ZM100.991 9.06455C101.115 9.19815 101.213 9.43069 101.064 9.97367C100.913 10.5283 100.522 11.3214 99.782 12.4636L100.453 12.8986C101.204 11.7401 101.65 10.8626 101.836 10.185C102.025 9.49572 101.961 8.93435 101.578 8.52065L100.991 9.06455ZM99.7718 12.4802C96.9215 17.3891 92.429 20.2191 86.8578 21.2311L87.0008 22.0182C92.7727 20.9698 97.4812 18.0184 100.464 12.882L99.7718 12.4802ZM86.9068 21.2253C85.801 21.2876 85.0441 21.1181 84.1342 21.0165C83.223 20.9148 82.2457 20.8988 80.8246 21.3048L81.0444 22.0741C82.3453 21.7024 83.215 21.7188 84.0455 21.8115C84.8773 21.9044 85.7568 22.0913 86.9518 22.024L86.9068 21.2253ZM80.8553 21.2974C79.194 21.6332 77.9494 22.8375 76.873 23.9744C76.3215 24.5569 75.8188 25.1179 75.2998 25.5969C74.7833 26.0737 74.2838 26.4363 73.7641 26.6286L74.0416 27.3789C74.7046 27.1337 75.2947 26.6903 75.8424 26.1848C76.3877 25.6815 76.924 25.0841 77.4539 24.5244C78.5405 23.3767 79.629 22.3614 81.0138 22.0815L80.8553 21.2974ZM73.7349 26.6407C72.2931 27.3073 71.0379 27.4647 69.8483 27.3313C68.6478 27.1966 67.4949 26.7641 66.255 26.2166L65.9318 26.9484C67.187 27.5026 68.4321 27.9774 69.7591 28.1263C71.097 28.2764 72.4989 28.0935 74.0707 27.3668L73.7349 26.6407ZM66.2614 26.2194C65.2732 25.7622 64.0611 24.5208 63.0981 23.1952C62.6229 22.5411 62.2233 21.887 61.9541 21.3309C61.8193 21.0525 61.7208 20.806 61.6609 20.6012C61.5987 20.3885 61.5882 20.254 61.5971 20.1856L60.8037 20.0825C60.7738 20.3132 60.8192 20.5733 60.893 20.8258C60.9692 21.0862 61.0869 21.3757 61.234 21.6795C61.5284 22.2876 61.9547 22.9825 62.4508 23.6654C63.4304 25.0137 64.7426 26.3982 65.9255 26.9455L66.2614 26.2194ZM61.5994 20.1055C61.5998 20.1115 61.5989 20.0886 61.6049 20.0142C61.6101 19.9488 61.619 19.8611 61.6317 19.752C61.6569 19.5343 61.6958 19.2413 61.7462 18.8899C61.8469 18.1878 61.9922 17.2606 62.1619 16.2524C62.5019 14.2329 62.9373 11.9043 63.3061 10.4131L62.5295 10.221C62.153 11.7433 61.7135 14.0971 61.373 16.1196C61.2025 17.1325 61.0561 18.0663 60.9543 18.7764C60.9034 19.1311 60.8634 19.432 60.837 19.66C60.8238 19.7737 60.8137 19.8718 60.8074 19.9505C60.8018 20.0204 60.7969 20.1001 60.8014 20.1626L61.5994 20.1055ZM63.3061 10.4131C63.6499 9.02296 65.0532 6.96009 67.2451 5.12749C69.424 3.30585 72.3275 1.75909 75.605 1.3496L75.5058 0.555773C72.0433 0.988386 69.0006 2.61708 66.732 4.51373C64.4765 6.39944 62.931 8.59771 62.5295 10.221L63.3061 10.4131ZM75.6137 1.34842C78.4429 0.931828 80.6708 0.921632 91.3435 3.3835L91.5233 2.60397C80.844 0.140582 78.4875 0.116632 75.4971 0.556954L75.6137 1.34842ZM91.3243 3.37857C93.3991 3.96688 95.2159 4.59434 97.2587 6.92197L97.8599 6.39428C95.6704 3.8994 93.6823 3.21564 91.5426 2.60891L91.3243 3.37857ZM97.4264 6.50481C93.4059 6.80512 91.9408 7.25625 90.1636 8.2859L90.5646 8.97811C92.1957 8.03315 93.5261 7.59837 97.4859 7.30259L97.4264 6.50481ZM90.1863 8.27368C89.0998 8.81271 88.0713 9.57508 87.0763 10.4041C86.0945 11.2221 85.0895 12.1544 84.125 12.9826C82.147 14.6808 80.1963 16.0675 77.9934 16.2042L78.0429 17.0027C80.5386 16.8477 82.6708 15.2856 84.6461 13.5895C85.6583 12.7205 86.5975 11.8443 87.5883 11.0188C88.5659 10.2043 89.5383 9.48823 90.5419 8.99033L90.1863 8.27368ZM77.9685 16.2065C75.6466 16.4967 73.7785 15.6282 71.6724 14.3799C69.5816 13.1406 67.2597 11.5257 64.1424 10.5196L63.8967 11.281C66.9038 12.2515 69.1185 13.7961 71.2645 15.0681C73.3953 16.3311 75.4642 17.3258 78.0677 17.0003L77.9685 16.2065ZM64.1699 10.5296C62.6862 9.92775 61.501 9.61715 60.3489 9.7094C59.1899 9.80221 58.1201 10.2977 56.8547 11.1889L57.3154 11.843C58.5257 10.9906 59.4567 10.5834 60.4128 10.5068C61.3759 10.4297 62.4201 10.6831 63.8692 11.271L64.1699 10.5296ZM56.8519 11.191C53.9688 13.26 52.3718 16.6385 52.2458 21.4211L53.0456 21.4422C53.167 16.8347 54.6927 13.7252 57.3183 11.8409L56.8519 11.191ZM52.2458 21.4418C52.3145 24.1527 54.0858 27.7434 58.0554 29.9784L58.4479 29.2813C54.7053 27.1742 53.1066 23.8304 53.0456 21.4215L52.2458 21.4418ZM58.1019 30.0008C62.7901 31.8936 65.3048 33.0444 68.8843 36.7452L69.4593 36.1891C65.7646 32.369 63.128 31.1673 58.4014 29.259L58.1019 30.0008ZM68.8734 36.7336C70.2679 38.2954 70.6181 38.5915 71.0792 38.8557L71.4769 38.1615C71.1453 37.9716 70.876 37.7752 69.4702 36.2007L68.8734 36.7336ZM71.0351 38.8263C71.3503 39.0674 71.7795 39.2874 72.2812 39.5053C72.787 39.7251 73.3922 39.9534 74.0722 40.2043C75.4372 40.7081 77.1253 41.311 79.0234 42.1475L79.346 41.4154C77.4204 40.5668 75.7061 39.9546 74.3491 39.4538C73.6681 39.2025 73.0825 38.9812 72.6 38.7716C72.1133 38.5602 71.7568 38.3711 71.5211 38.1909L71.0351 38.8263ZM79.1055 42.1735C82.0263 42.7635 84.2982 42.9669 86.4821 42.6001C88.6691 42.2328 90.7313 41.3 93.2464 39.6793L92.813 39.0069C90.3467 40.5962 88.3887 41.4687 86.3496 41.8112C84.3074 42.1542 82.1475 41.9718 79.2639 41.3893L79.1055 42.1735ZM93.253 39.6749C97.3589 36.9116 100.172 34.6169 101.829 30.3642L101.083 30.0737C99.52 34.0864 96.8856 36.2658 92.8063 39.0113L93.253 39.6749ZM101.843 30.3187C102.077 29.4132 102.217 28.5753 102.335 27.7907C102.455 27.0003 102.552 26.2779 102.7 25.5711C102.991 24.1789 103.476 22.8779 104.709 21.4652L104.107 20.9391C102.763 22.4783 102.229 23.9146 101.917 25.4072C101.763 26.1428 101.661 26.8998 101.544 27.6709C101.427 28.4477 101.292 29.2536 101.069 30.1192L101.843 30.3187ZM104.731 21.4387C105.584 20.275 106.766 19.3523 107.923 18.3129C109.055 17.2954 110.147 16.175 110.638 14.6712L109.878 14.4226C109.457 15.7097 108.51 16.7093 107.388 17.7179C106.29 18.7046 105.003 19.714 104.085 20.9656L104.731 21.4387ZM110.624 14.7093C111.186 13.4445 111.258 12.333 110.775 11.4728C110.292 10.6144 109.328 10.1339 108.113 9.96435L108.002 10.7567C109.095 10.9091 109.768 11.3142 110.077 11.8647C110.386 12.4133 110.404 13.2341 109.893 14.3844L110.624 14.7093ZM108.042 9.96081C107.257 9.99103 106.105 10.3713 105.008 10.9996C103.904 11.6312 102.794 12.5478 102.129 13.7034L102.823 14.1022C103.393 13.111 104.375 12.2833 105.405 11.6939C106.441 11.1011 107.463 10.7837 108.073 10.7602L108.042 9.96081ZM102.155 13.664C98.7027 18.303 95.8403 22.9807 93.8274 29.6744L94.5935 29.9048C96.5711 23.3285 99.379 18.7342 102.797 14.1416L102.155 13.664ZM93.8145 29.7329C93.3191 33.1923 92.5784 35.5711 91.4978 37.3023C90.4251 39.0208 88.9983 40.1314 87.0662 41.0192L87.4002 41.7461C89.4397 40.809 91.0028 39.6061 92.1764 37.7259C93.3422 35.8582 94.1043 33.353 94.6064 29.8463L93.8145 29.7329ZM87.1533 40.9907C84.9202 41.4456 83.2215 41.425 81.5295 40.8306C79.822 40.2308 78.0828 39.0339 75.7945 37.0547L75.2711 37.6598C77.5766 39.6538 79.4093 40.9338 81.2644 41.5854C83.1349 42.2424 84.9895 42.2479 87.313 41.7746L87.1533 40.9907ZM75.7847 37.0465C74.6554 36.1312 73.7461 34.4181 72.8361 31.4595C71.9303 28.5147 71.0457 24.417 69.9136 18.815L69.1295 18.9735C70.2601 24.5681 71.1519 28.7054 72.0714 31.6947C72.9867 34.6703 73.9516 36.5905 75.2809 37.668L75.7847 37.0465ZM69.9199 18.858C69.642 15.8056 69.6421 13.605 70.0956 11.7195C70.546 9.84725 71.4514 8.25479 73.0428 6.43767L72.441 5.91061C70.7899 7.79588 69.8064 9.50122 69.3178 11.5324C68.8324 13.5501 68.8435 15.8584 69.1232 18.9305L69.9199 18.858ZM73.0319 6.44965C74.6263 4.77134 78.1823 2.97526 83.046 4.28827L83.2545 3.51592C78.0953 2.12311 74.2399 4.01662 72.4519 5.89863L73.0319 6.44965ZM83.0594 4.29164C83.1603 4.31517 83.3676 4.42594 83.6073 4.66943C83.8374 4.90321 84.0669 5.22957 84.2274 5.62925C84.5428 6.41474 84.6007 7.5046 83.8205 8.77558L84.5023 9.1941C85.4163 7.70509 85.3786 6.34923 84.9698 5.33117C84.7682 4.82907 84.4785 4.4142 84.1775 4.10828C83.8859 3.81207 83.5502 3.58467 83.2412 3.51256L83.0594 4.29164ZM83.8084 8.7966C83.2133 9.91255 82.0711 10.711 80.8498 11.2259C79.629 11.7406 78.3958 11.9438 77.6993 11.9189L77.6707 12.7184C78.5044 12.7482 79.8536 12.5141 81.1606 11.9631C82.4669 11.4123 83.7978 10.5165 84.5143 9.17308L83.8084 8.7966ZM77.7226 11.9205C76.7658 11.8299 75.5628 11.4705 74.6392 10.952C74.1773 10.6927 73.8085 10.4064 73.573 10.1151C73.3401 9.82687 73.2595 9.56378 73.2979 9.32049L72.5077 9.19572C72.4232 9.73124 72.6261 10.2162 72.9508 10.618C73.273 11.0166 73.7359 11.3623 74.2475 11.6496C75.2709 12.2241 76.582 12.6161 77.6473 12.7169L77.7226 11.9205ZM73.3027 9.2496C73.2924 8.76161 73.5586 8.17929 74.1866 7.57997C74.8101 6.98503 75.7561 6.40881 77.0047 5.94388L76.7256 5.19416C75.4056 5.68565 74.3567 6.31181 73.6343 7.00122C72.9165 7.68625 72.486 8.47025 72.5029 9.26661L73.3027 9.2496ZM76.9742 5.95388C78.8788 5.41449 79.7743 5.27031 80.871 5.91399L81.2759 5.22405C79.8585 4.3921 78.6513 4.64746 76.7562 5.18416L76.9742 5.95388ZM80.8638 5.90968C81.1087 6.06039 81.1929 6.23851 81.2066 6.43852C81.2222 6.66635 81.1459 6.95407 80.9872 7.27915L81.7062 7.62996C81.8919 7.24941 82.0342 6.81298 82.0047 6.38376C81.9733 5.92671 81.7487 5.51488 81.2831 5.22836L80.8638 5.90968ZM81.0103 7.23825C80.6091 7.8623 79.8356 8.26118 78.4718 8.56722L78.647 9.34781C80.0482 9.03338 81.1006 8.57709 81.6832 7.67086L81.0103 7.23825ZM78.5594 8.55751C77.9154 8.55751 77.5274 8.18313 77.4323 7.83176C77.3853 7.65766 77.4057 7.4843 77.4982 7.33301C77.591 7.18095 77.7792 7.01543 78.1301 6.90789L77.8957 6.143C77.3995 6.29507 77.0308 6.56336 76.8154 6.91599C76.5996 7.26939 76.5603 7.67159 76.6601 8.04061C76.8588 8.77547 77.5912 9.35751 78.5594 9.35751L78.5594 8.55751ZM78.0953 6.91687C78.3561 6.86198 78.4992 6.89056 78.6268 6.96187C78.7832 7.0493 78.9586 7.22402 79.2296 7.56625L79.8568 7.06959C79.5852 6.72668 79.3252 6.43575 79.017 6.26353C78.68 6.07518 78.3292 6.0501 77.9305 6.13403L78.0953 6.91687ZM97.2587 6.92197C97.1123 6.75525 97.2342 6.51916 97.4264 6.50481L97.4859 7.30259C97.9229 7.26995 98.1682 6.74553 97.8599 6.39428L97.2587 6.92197ZM61.8594 45.2258C61.8917 45.3499 61.8236 45.4549 61.7523 45.4992C61.6829 45.5423 61.5678 45.5557 61.4746 45.4811L61.9744 44.8564C61.7658 44.6896 61.506 44.7104 61.33 44.8197C61.1522 44.9302 61.0157 45.1602 61.0852 45.4274L61.8594 45.2258ZM45.7085 57.1083C45.6417 57.0086 45.6323 56.8564 45.7329 56.7396L46.3391 57.2615C46.4951 57.0804 46.4873 56.8337 46.3733 56.6634L45.7085 57.1083ZM87.6647 42.2917C87.6184 42.0252 87.3844 41.8329 87.1176 41.8343L87.1217 42.6342C87.0016 42.6348 86.8976 42.5504 86.8764 42.4285L87.6647 42.2917ZM115.433 81.6771C115.279 81.5311 115.277 81.2409 115.508 81.1153L115.891 81.8181C116.181 81.6601 116.187 81.2885 115.983 81.0958L115.433 81.6771ZM38.2577 25.878C38.4854 25.6802 38.5026 25.3454 38.3273 25.1228L37.6988 25.6177C37.6214 25.5194 37.6249 25.3681 37.7331 25.2741L38.2577 25.878ZM41.9908 54.8079C42.1506 54.958 42.0558 55.214 41.8534 55.2414L41.7463 54.4486C41.2959 54.5094 41.1009 55.0698 41.4433 55.3912L41.9908 54.8079ZM56.2939 55.4894C56.0689 55.499 55.9364 55.2197 56.1085 55.0539L56.6635 55.63C57.0318 55.2753 56.7569 54.6689 56.2598 54.6901L56.2939 55.4894ZM64.4057 72.5835C64.5788 72.4923 64.7228 72.3562 64.799 72.1762C64.8765 71.9933 64.8696 71.7963 64.7922 71.6261C64.6374 71.2855 64.2581 71.1311 63.8805 71.1824L63.9882 71.9751C64.0441 71.9675 64.0725 71.9779 64.0797 71.9813C64.0881 71.9853 64.0753 71.982 64.0639 71.9572C64.0583 71.9448 64.0541 71.9289 64.0538 71.9108C64.0535 71.8925 64.0572 71.8764 64.0623 71.8643C64.0732 71.8387 64.0804 71.8506 64.0326 71.8759L64.4057 72.5835ZM43.2683 55.0502C43.2167 55.0572 43.1651 55.0524 43.1171 55.0374L43.3559 54.2739C43.2939 54.2545 43.2274 54.2485 43.1612 54.2574L43.2683 55.0502ZM32.0101 72.3486C31.6849 72.5288 31.7014 73.0168 32.0608 73.1606L32.3579 72.4178C32.6387 72.5301 32.6492 72.909 32.398 73.0482L32.0101 72.3486Z" fill="white"/>
</svg>
